<?xml version="1.0" encoding="utf-8"?>
<!-- Generator: Adobe Illustrator 23.0.1, SVG Export Plug-In . SVG Version: 6.00 Build 0)  -->
<svg version="1.1" id="Capa_1" xmlns="http://www.w3.org/2000/svg" xmlns:xlink="http://www.w3.org/1999/xlink" x="0px" y="0px"
	 viewBox="0 0 460.3 460.3" style="enable-background:new 0 0 460.3 460.3;" xml:space="preserve">
<style type="text/css">
	.st0{fill:url(#SVGID_1_);}
	.st1{fill:#FFFFFF;}
</style>
<linearGradient id="SVGID_1_" gradientUnits="userSpaceOnUse" x1="15.2935" y1="60.9183" x2="131.8224" y2="152.6538">
	<stop  offset="0.1981" style="stop-color:#FB597D"/>
	<stop  offset="1" style="stop-color:#FB886A"/>
</linearGradient>
<circle class="st0" cx="230.2" cy="230.1" r="230.1"/>
<g>
	<g>
		<path class="st1" d="M230.2,143.3l-125,103.1c0,0.1,0,0.4-0.1,0.7s-0.1,0.5-0.1,0.6v104.4c0,3.8,1.4,7,4.1,9.8
			c2.8,2.8,6,4.1,9.8,4.1h83.5v-83.5H258V366h83.5c3.8,0,7-1.4,9.8-4.1s4.1-6,4.1-9.8V247.7c0-0.6-0.1-1-0.2-1.3L230.2,143.3z"/>
		<path class="st1" d="M403,222.9l-47.6-39.6V94.6c0-2-0.7-3.7-2-5s-3-2-5-2h-41.8c-2,0-3.7,0.7-5,2s-2,3-2,5V137l-53.1-44.4
			c-4.6-3.8-10.1-5.7-16.5-5.7s-11.9,1.9-16.5,5.7L57.3,222.9c-1.4,1.2-2.2,2.7-2.4,4.7c-0.1,2,0.4,3.7,1.5,5.1l13.5,16.1
			c1.2,1.3,2.7,2.1,4.6,2.4c1.7,0.1,3.5-0.4,5.2-1.5l150.5-125.5l150.5,125.5c1.2,1,2.7,1.5,4.6,1.5h0.7c1.9-0.3,3.4-1.1,4.6-2.4
			l13.5-16.1c1.2-1.5,1.7-3.2,1.5-5.1C405.3,225.6,404.5,224.1,403,222.9z"/>
	</g>
</g>
</svg>
